<?xml version="1.0" encoding="utf-8"?>
<!-- Generator: Adobe Illustrator 27.9.0, SVG Export Plug-In . SVG Version: 6.00 Build 0)  -->
<svg version="1.1" id="Layer_1" xmlns="http://www.w3.org/2000/svg" xmlns:xlink="http://www.w3.org/1999/xlink" x="0px" y="0px"
	 viewBox="0 0 192.24 90.69" style="enable-background:new 0 0 192.24 90.69;" xml:space="preserve">
<style type="text/css">
	.st0{fill:#010101;}
	.st1{font-family:'CenturyGothic';}
	.st2{font-size:56.2815px;}
	.st3{fill:#FFFFFF;}
</style>
<g>
	<g>
		<path class="st0" d="M43.9,36.12l3.44-2.06c2.42,4.45,5.21,6.68,8.38,6.68c1.35,0,2.63-0.32,3.82-0.95
			c1.19-0.63,2.1-1.48,2.72-2.54s0.93-2.19,0.93-3.38c0-1.36-0.46-2.68-1.37-3.98c-1.26-1.8-3.57-3.96-6.92-6.49
			c-3.37-2.55-5.47-4.39-6.29-5.52c-1.43-1.91-2.14-3.97-2.14-6.18c0-1.76,0.42-3.36,1.26-4.81c0.84-1.45,2.03-2.59,3.56-3.42
			c1.53-0.83,3.19-1.25,4.99-1.25c1.91,0,3.69,0.47,5.35,1.42c1.66,0.94,3.41,2.68,5.26,5.21l-3.3,2.5
			c-1.52-2.02-2.82-3.34-3.89-3.98c-1.07-0.64-2.24-0.96-3.51-0.96c-1.63,0-2.96,0.5-4,1.48s-1.55,2.21-1.55,3.66
			c0,0.88,0.18,1.73,0.55,2.56c0.37,0.82,1.03,1.72,2.01,2.69c0.53,0.51,2.27,1.86,5.22,4.04c3.5,2.58,5.9,4.88,7.2,6.9
			c1.3,2.02,1.95,4.04,1.95,6.07c0,2.93-1.11,5.48-3.34,7.64c-2.23,2.16-4.93,3.24-8.12,3.24c-2.46,0-4.68-0.66-6.68-1.96
			C47.43,41.39,45.59,39.2,43.9,36.12z"/>
	</g>
	<g>
		<path class="st0" d="M75.51,3.23h23.17v3.96H79.55v12.67h18.96v3.96H79.55v15.88h18.96v3.96h-23V3.23z"/>
	</g>
	<text transform="matrix(1 0 0 1 100.6779 43.6507)" class="st0 st1 st2"> </text>
	<text transform="matrix(1 0 0 1 116.2658 43.6507)" class="st0 st1 st2"> </text>
	<text transform="matrix(1 0 0 1 131.8557 43.6507)" class="st0 st1 st2"> </text>
	<g>
		<path class="st0" d="M190.02,10.73l-3.19,2.45c-1.76-2.29-3.87-4.03-6.33-5.21c-2.46-1.18-5.17-1.77-8.12-1.77
			c-3.23,0-6.21,0.77-8.96,2.32s-4.88,3.63-6.39,6.24c-1.51,2.61-2.27,5.55-2.27,8.81c0,4.93,1.69,9.04,5.07,12.34
			c3.38,3.3,7.64,4.95,12.79,4.95c5.66,0,10.4-2.22,14.21-6.65l3.19,2.42c-2.02,2.57-4.53,4.55-7.55,5.95
			c-3.01,1.4-6.38,2.1-10.1,2.1c-7.07,0-12.65-2.35-16.74-7.06c-3.43-3.98-5.14-8.78-5.14-14.4c0-5.92,2.08-10.9,6.23-14.94
			c4.15-4.04,9.35-6.06,15.6-6.06c3.77,0,7.18,0.75,10.22,2.24C185.58,5.94,188.07,8.03,190.02,10.73z"/>
	</g>
</g>
<g>
	<g>
		<g>
			<path class="st3" d="M39.83,57.1c0,7.44,0,14.81,0,22.22c2.56,0,5.08,0,7.71,0c0-0.31,0-0.61,0-0.9c0.02-3.29,0-6.57,0.06-9.86
				c0.03-1.45,0.34-2.87,1.22-4.08c0.91-1.24,2.19-1.69,3.67-1.41c1.43,0.27,2,1.35,2.25,2.64c0.11,0.59,0.15,1.2,0.16,1.81
				c0.01,3.66,0.01,7.33,0.01,10.99c0,0.27,0,0.53,0,0.8c2.64,0,5.15,0,7.74,0c0-0.35,0-0.64,0-0.94c0.04-3.44,0.02-6.87,0.13-10.31
				c0.05-1.53,0.47-3.01,1.65-4.12c1.94-1.83,4.73-1.04,5.38,1.53c0.17,0.68,0.23,1.4,0.23,2.1c0.02,3.64,0.01,7.28,0.01,10.92
				c0,0.27,0,0.54,0,0.83c2.61,0,5.13,0,7.73,0c0-0.31,0-0.58,0-0.85c0-2.93,0.02-5.86-0.01-8.8c-0.02-2.12-0.01-4.25-0.16-6.36
				c-0.28-3.87-2.13-5.99-5.68-6.6c-0.79-0.14-1.61-0.16-2.42-0.13c-3.07,0.1-5.56,1.32-7.32,3.9c-0.05,0.07-0.13,0.12-0.22,0.21
				c-1.54-3.18-4.2-4.24-7.5-4.1c-3.27,0.13-5.87,1.44-7.65,4.34c0-1.27,0-2.54,0-3.82C44.45,57.1,42.18,57.1,39.83,57.1z
				 M143.32,10.72c-4.37-6.2-10.2-9.75-17.75-10.02c-8.27-0.29-14.68,3.27-19.52,10.01c4.05,2.34,8.01,4.62,11.98,6.91
				c1.78-2.09,3.95-3.21,6.65-3.21c2.73-0.01,4.91,1.15,6.68,3.21C135.35,15.32,139.29,13.05,143.32,10.72z M144.53,12.79
				c-4.07,2.35-8.02,4.63-11.98,6.91c0.94,2.57,0.8,5.02-0.54,7.35c-1.35,2.35-3.45,3.67-6.09,4.16c0,4.59,0,9.13,0,13.79
				c7.55-0.66,13.51-3.98,17.52-10.36C147.84,27.67,147.97,20.36,144.53,12.79z M123.45,45.01c0-4.69,0-9.23,0-13.8
				c-0.17-0.03-0.31-0.06-0.45-0.09c-5.1-1.25-7.79-5.86-6.31-10.9c0.16-0.53-0.09-0.66-0.43-0.86c-3.61-2.08-7.21-4.16-10.82-6.23
				c-0.17-0.1-0.35-0.16-0.6-0.27c-3.33,7.25-3.3,14.37,0.75,21.22C109.55,40.78,115.62,44.28,123.45,45.01z M103.68,88.3
				c2.01,0.46,3.94,0.61,5.89,0.47c2.35-0.16,4.41-1.05,5.82-2.96c1-1.34,1.9-2.82,2.52-4.37c3.22-7.97,6.34-15.99,9.49-23.99
				c0.04-0.1,0.05-0.22,0.07-0.35c-2.57,0-5.1,0-7.65,0c-1.51,4.78-3.02,9.55-4.59,14.53c-0.11-0.32-0.15-0.43-0.19-0.54
				c-1.35-4.07-2.69-8.14-4.04-12.21c-0.6-1.81-0.6-1.81-2.54-1.81c-2.09,0-4.18,0-6.36,0c0.13,0.34,0.21,0.6,0.31,0.85
				c2.81,7.08,5.62,14.16,8.41,21.24c0.13,0.33,0.22,0.75,0.13,1.07c-0.48,1.59-1.91,2.65-3.59,2.62c-1.05-0.02-2.09-0.18-3.19-0.29
				C104.03,84.41,103.86,86.32,103.68,88.3z M146.55,63.47c0.18-1.71,0.33-3.32,0.52-4.91c0.07-0.57-0.08-0.85-0.64-1.06
				c-2.73-1.04-5.53-1.15-8.36-0.69c-5.2,0.85-9.53,4.26-10,10.32c-0.32,4.12,0.88,7.71,4.34,10.17c4.49,3.19,9.46,3.05,14.52,1.68
				c0.14-0.04,0.32-0.27,0.32-0.41c-0.03-1.78-0.08-3.56-0.13-5.41c-0.39,0.15-0.67,0.27-0.95,0.36c-1.9,0.65-3.83,0.93-5.8,0.39
				c-2.85-0.78-4.52-3.17-4.34-6.14c0.19-2.98,2.06-5.08,5.01-5.48C142.95,62.04,144.76,62.44,146.55,63.47z M99.98,63.47
				c0.18-1.72,0.32-3.33,0.52-4.92c0.08-0.59-0.1-0.85-0.65-1.05c-2.67-1.01-5.42-1.12-8.21-0.71c-4.94,0.74-9.56,3.94-10.14,10.2
				c-0.44,4.76,1.51,9.24,6.28,11.49c2.78,1.31,5.73,1.59,8.73,1.26c1.39-0.15,2.77-0.49,4.12-0.73c0-1.09,0.02-2.02,0-2.96
				c-0.02-0.94-0.08-1.89-0.13-2.88c-0.37,0.14-0.64,0.26-0.93,0.36c-1.87,0.64-3.78,0.92-5.73,0.4c-2.92-0.78-4.58-3.14-4.4-6.24
				c0.17-2.9,2.08-4.99,5.01-5.39C96.38,62.04,98.19,62.44,99.98,63.47z M35.36,57.13c-2.61,0-5.12,0-7.64,0c0,7.43,0,14.81,0,22.18
				c2.58,0,5.09,0,7.64,0C35.36,71.89,35.36,64.53,35.36,57.13z M152.6,57.21c-1.67-0.01-3,1.3-3,2.95
				c0.01,1.59,1.35,2.95,2.94,2.97c1.6,0.02,3.01-1.38,3.01-2.98C155.54,58.53,154.23,57.22,152.6,57.21z"/>
			<path d="M39.83,57.1c2.35,0,4.62,0,6.98,0c0,1.29,0,2.55,0,3.82c1.78-2.9,4.38-4.21,7.65-4.34c3.29-0.14,5.95,0.93,7.5,4.1
				c0.09-0.08,0.17-0.13,0.22-0.21c1.76-2.58,4.25-3.8,7.32-3.9c0.8-0.03,1.63,0,2.42,0.13c3.55,0.61,5.41,2.73,5.68,6.6
				c0.15,2.11,0.14,4.24,0.16,6.36c0.02,2.93,0.01,5.86,0.01,8.8c0,0.27,0,0.54,0,0.85c-2.6,0-5.11,0-7.73,0c0-0.29,0-0.56,0-0.83
				c0-3.64,0.01-7.28-0.01-10.92c0-0.7-0.06-1.42-0.23-2.1c-0.64-2.57-3.43-3.36-5.38-1.53c-1.18,1.11-1.6,2.59-1.65,4.12
				c-0.11,3.43-0.1,6.87-0.13,10.31c0,0.3,0,0.6,0,0.94c-2.59,0-5.1,0-7.74,0c0-0.26,0-0.53,0-0.8c0-3.66,0.01-7.33-0.01-10.99
				c0-0.6-0.04-1.21-0.16-1.81c-0.25-1.29-0.82-2.37-2.25-2.64c-1.49-0.28-2.76,0.17-3.67,1.41c-0.88,1.21-1.19,2.62-1.22,4.08
				c-0.06,3.28-0.04,6.57-0.06,9.86c0,0.3,0,0.59,0,0.9c-2.63,0-5.14,0-7.71,0C39.83,71.91,39.83,64.54,39.83,57.1z"/>
			<path d="M143.32,11.72c-4.03,2.33-7.98,4.6-11.95,6.9c-1.77-2.05-3.95-3.21-6.68-3.21c-2.7,0.01-4.87,1.13-6.65,3.21
				c-3.97-2.29-7.93-4.57-11.98-6.91c4.84-6.75,11.25-10.31,19.52-10.01C133.13,1.97,138.95,5.52,143.32,11.72z"/>
			<path d="M144.53,13.79c3.44,7.56,3.3,14.87-1.08,21.85c-4.01,6.38-9.97,9.7-17.52,10.36c0-4.66,0-9.19,0-13.79
				c2.63-0.49,4.73-1.82,6.09-4.16c1.34-2.33,1.48-4.78,0.54-7.35C136.51,18.42,140.46,16.14,144.53,13.79z"/>
			<path d="M123.45,46.01c-7.83-0.73-13.9-4.24-17.86-10.94c-4.04-6.85-4.07-13.97-0.75-21.22c0.25,0.11,0.43,0.18,0.6,0.27
				c3.61,2.08,7.21,4.16,10.82,6.23c0.34,0.2,0.58,0.33,0.43,0.86c-1.48,5.03,1.21,9.65,6.31,10.9c0.14,0.03,0.28,0.06,0.45,0.09
				C123.45,36.79,123.45,41.32,123.45,46.01z"/>
			<path d="M103.68,88.3c0.17-1.98,0.34-3.89,0.5-5.72c1.1,0.1,2.15,0.27,3.19,0.29c1.67,0.03,3.11-1.03,3.59-2.62
				c0.1-0.32,0-0.74-0.13-1.07c-2.79-7.08-5.6-14.16-8.41-21.24c-0.1-0.25-0.19-0.51-0.31-0.85c2.18,0,4.27,0,6.36,0
				c1.94,0,1.94,0,2.54,1.81c1.35,4.07,2.69,8.14,4.04,12.21c0.04,0.11,0.08,0.22,0.19,0.54c1.57-4.97,3.07-9.74,4.59-14.53
				c2.56,0,5.08,0,7.65,0c-0.03,0.13-0.03,0.25-0.07,0.35c-3.15,8-6.27,16.01-9.49,23.99c-0.62,1.55-1.53,3.02-2.52,4.37
				c-1.41,1.91-3.47,2.79-5.82,2.96C107.63,88.91,105.7,88.76,103.68,88.3z"/>
			<path d="M146.55,63.47c-1.79-1.02-3.6-1.43-5.51-1.17c-2.95,0.4-4.83,2.5-5.01,5.48c-0.19,2.97,1.48,5.36,4.34,6.14
				c1.97,0.54,3.9,0.26,5.8-0.39c0.28-0.1,0.56-0.21,0.95-0.36c0.05,1.85,0.11,3.63,0.13,5.41c0,0.14-0.18,0.37-0.32,0.41
				c-5.06,1.36-10.03,1.51-14.52-1.68c-3.47-2.46-4.66-6.05-4.34-10.17c0.47-6.07,4.8-9.48,10-10.32c2.83-0.46,5.63-0.35,8.36,0.69
				c0.56,0.21,0.71,0.49,0.64,1.06C146.88,60.15,146.73,61.75,146.55,63.47z"/>
			<path d="M99.98,63.47c-1.79-1.02-3.6-1.43-5.51-1.17c-2.93,0.4-4.84,2.5-5.01,5.39c-0.19,3.09,1.47,5.46,4.4,6.24
				c1.95,0.52,3.86,0.24,5.73-0.4c0.28-0.1,0.56-0.21,0.93-0.36c0.05,1,0.11,1.94,0.13,2.88c0.02,0.93,0,1.86,0,2.96
				c-1.36,0.25-2.73,0.58-4.12,0.73c-3.01,0.33-5.95,0.05-8.73-1.26c-4.77-2.25-6.73-6.73-6.28-11.49c0.58-6.26,5.2-9.47,10.14-10.2
				c2.79-0.42,5.53-0.31,8.21,0.71c0.54,0.21,0.73,0.46,0.65,1.05C100.29,60.14,100.15,61.75,99.98,63.47z"/>
			<path d="M35.36,57.13c0,7.4,0,14.76,0,22.18c-2.55,0-5.06,0-7.64,0c0-7.37,0-14.75,0-22.18C30.24,57.13,32.75,57.13,35.36,57.13z
				"/>
			<path d="M152.6,57.21c1.62,0.01,2.94,1.32,2.95,2.93c0.01,1.6-1.41,3.01-3.01,2.98c-1.59-0.02-2.93-1.38-2.94-2.97
				C149.6,58.51,150.94,57.19,152.6,57.21z M155.31,60.17c0.01-1.53-1.18-2.76-2.69-2.79c-1.52-0.03-2.79,1.23-2.79,2.77
				c0,1.53,1.2,2.71,2.74,2.71C154.12,62.87,155.3,61.7,155.31,60.17z"/>
			<path class="st3" d="M155.31,60.17c-0.01,1.54-1.19,2.7-2.74,2.7c-1.54,0-2.74-1.19-2.74-2.71c0-1.54,1.27-2.81,2.79-2.77
				C154.13,57.41,155.31,58.64,155.31,60.17z M153.35,60.47c0.53-0.28,0.81-0.75,0.52-1.25c-0.5-0.88-1.39-0.54-2.21-0.58
				c0,1.03,0,2,0,3.01c0.26-0.02,0.47-0.03,0.7-0.04c0.02-0.36,0.05-0.67,0.08-1.1c0.56,0.44,0.6,1.52,1.63,1.05
				C153.84,61.2,153.62,60.88,153.35,60.47z"/>
			<path d="M153.35,60.47c0.27,0.41,0.49,0.74,0.73,1.08c-1.03,0.47-1.07-0.61-1.63-1.05c-0.03,0.43-0.05,0.74-0.08,1.1
				c-0.23,0.01-0.44,0.03-0.7,0.04c0-1.02,0-1.98,0-3.01c0.82,0.05,1.71-0.29,2.21,0.58C154.16,59.72,153.88,60.19,153.35,60.47z"/>
		</g>
	</g>
</g>
<g>
	<path class="st0" d="M1.88,80.63v-3.08c0-1.24,0.15-2.19,0.44-2.86c0.29-0.67,0.75-1.19,1.36-1.58c0.61-0.39,1.29-0.58,2.03-0.58
		c0.69,0,1.33,0.17,1.9,0.51c0.57,0.34,1.03,0.83,1.39,1.49c0.28-0.81,0.6-1.44,0.97-1.88c0.37-0.44,0.82-0.78,1.35-1.02
		c0.53-0.24,1.1-0.37,1.72-0.37c1.26,0,2.32,0.46,3.19,1.38c0.87,0.92,1.3,2.15,1.3,3.69v4.3H1.88z M3.41,79.09h5.01v-0.9
		c0-1.09-0.1-1.89-0.3-2.4c-0.2-0.51-0.52-0.92-0.96-1.21c-0.44-0.3-0.92-0.45-1.45-0.45c-0.72,0-1.28,0.25-1.69,0.75
		c-0.41,0.5-0.61,1.3-0.61,2.39V79.09z M9.99,79.09h6v-1.94c0-1.14-0.11-1.98-0.33-2.51c-0.22-0.53-0.57-0.96-1.05-1.28
		c-0.48-0.32-0.99-0.48-1.54-0.48c-0.7,0-1.3,0.23-1.82,0.68c-0.52,0.45-0.87,1.08-1.06,1.87c-0.13,0.53-0.19,1.46-0.19,2.78V79.09z
		"/>
</g>
<g>
	<path class="st0" d="M1.88,69.45v-1.8l6.45-4L1.88,59.7V57.9l8.17,4.96h7.48v1.54h-7.48L1.88,69.45z"/>
</g>
</svg>
