<?xml version="1.0" encoding="utf-8"?>
<!-- Generator: Adobe Illustrator 27.9.0, SVG Export Plug-In . SVG Version: 6.00 Build 0)  -->
<svg version="1.1" id="Layer_1" xmlns="http://www.w3.org/2000/svg" xmlns:xlink="http://www.w3.org/1999/xlink" x="0px" y="0px"
	 viewBox="0 0 300 96.72" style="enable-background:new 0 0 300 96.72;" xml:space="preserve">
<style type="text/css">
	.st0{fill:#010101;}
	.st1{font-family:'CenturyGothic';}
	.st2{font-size:114.4213px;}
</style>
<g>
	<path class="st0" d="M1.26,73.05l6.98-4.19c4.92,9.05,10.6,13.58,17.04,13.58c2.76,0,5.34-0.64,7.77-1.93
		c2.42-1.29,4.26-3.01,5.53-5.17c1.27-2.16,1.9-4.45,1.9-6.87c0-2.76-0.93-5.46-2.79-8.1c-2.57-3.65-7.26-8.05-14.08-13.18
		c-6.85-5.18-11.12-8.92-12.79-11.23c-2.9-3.87-4.36-8.06-4.36-12.57c0-3.58,0.86-6.83,2.57-9.78c1.71-2.94,4.13-5.26,7.24-6.96
		c3.11-1.69,6.49-2.54,10.14-2.54c3.87,0,7.5,0.96,10.87,2.88c3.37,1.92,6.94,5.45,10.7,10.59l-6.7,5.08
		c-3.09-4.1-5.73-6.8-7.91-8.1c-2.18-1.3-4.55-1.96-7.12-1.96c-3.32,0-6.02,1.01-8.13,3.02c-2.11,2.01-3.16,4.49-3.16,7.43
		c0,1.79,0.37,3.52,1.12,5.2c0.74,1.68,2.1,3.5,4.08,5.48c1.08,1.04,4.62,3.78,10.62,8.21c7.11,5.25,11.99,9.93,14.64,14.02
		c2.64,4.1,3.97,8.21,3.97,12.35c0,5.96-2.26,11.14-6.79,15.53c-4.52,4.4-10.03,6.59-16.51,6.59c-4.99,0-9.52-1.33-13.58-3.99
		C8.43,83.77,4.69,79.31,1.26,73.05z"/>
</g>
<g>
	<path class="st0" d="M65.53,6.18h47.1v8.05H73.74v25.76h38.55v8.05H73.74v32.29h38.55v8.05H65.53V6.18z"/>
</g>
<text transform="matrix(1 0 0 1 148.3813 88.3602)" class="st0 st1 st2"> </text>
<text transform="matrix(1 0 0 1 180.0742 88.3602)" class="st0 st1 st2"> </text>
<g>
	<path class="st0" d="M298.31,21.43l-6.48,4.97c-3.58-4.66-7.87-8.18-12.88-10.59c-5.01-2.4-10.51-3.6-16.51-3.6
		c-6.56,0-12.63,1.57-18.21,4.72c-5.59,3.15-9.92,7.37-12.99,12.68c-3.07,5.31-4.61,11.28-4.61,17.91
		c0,10.02,3.44,18.38,10.31,25.09c6.87,6.7,15.54,10.06,26.01,10.06c11.51,0,21.14-4.51,28.88-13.52l6.48,4.92
		c-4.1,5.21-9.21,9.25-15.34,12.1c-6.13,2.85-12.97,4.27-20.53,4.27c-14.38,0-25.72-4.79-34.02-14.36
		c-6.97-8.08-10.45-17.84-10.45-29.28c0-12.03,4.22-22.15,12.65-30.37c8.44-8.21,19-12.32,31.71-12.32c7.67,0,14.6,1.52,20.78,4.55
		C289.3,11.7,294.37,15.95,298.31,21.43z"/>
</g>
<g>
	<path d="M180.83,37.28c-7.15-8.58-20.16-8.65-27.25-0.01c-7.94-4.59-15.9-9.18-24.03-13.88c8.82-12.53,20.6-19.66,35.87-20.21
		c16.71-0.6,29.68,6.54,39.49,20.18C196.78,28.06,188.84,32.65,180.83,37.28z"/>
	<path d="M183.27,41.45c7.93-4.58,15.88-9.16,24.02-13.86c6.62,14.22,6.63,28.17-0.83,41.86c-8.75,16.06-25.05,22.76-36.88,22.85
		c0-9.18,0-18.35,0-27.53C180.19,63.19,187.22,52.61,183.27,41.45z"/>
	<path d="M164.54,92.5c-15.57-1.44-27.57-8.45-35.76-21.63c-8.51-13.69-8.17-30.74-1.56-43.11c0.34,0.15,0.71,0.28,1.04,0.47
		c7.26,4.18,14.53,8.38,21.79,12.56c0.67,0.39,1.2,0.64,0.88,1.72c-2.98,10.18,2.41,19.46,12.68,21.98
		c0.29,0.07,0.58,0.12,0.92,0.19C164.54,73.9,164.54,83.04,164.54,92.5z"/>
</g>
</svg>
